# xmcd
# Track frame offsets:
# 150
# 15405
# 32040
# 44721
# 64441
# 82442
# 99229
# 116967
# 137581
# 151998
# 164670
# 185953
# 202067
# 216915
# 239796
#
# Disc length: 3336 seconds
# Revision: 0
# Processed by: cddbd v1.5.1PL0 Copyright (c) Steve Scherf et al.
# Submitted via: VisiTrax 2.9.10.228 - For more info visit www.synapsa.com
#
DISCID=ef0d060f
DTITLE=Wariner, Steve - CB90034
DYEAR=1900
DGENRE=Karaoke
TTITLE0=Where Did I Go Wrong
TTITLE1=Domino Theory, The
TTITLE2=Precious Thing
TTITLE3=There For Awhile
TTITLE4=Leave Him Out Of This
TTITLE5=Tips Of My Fingers, The
TTITLE6=Woman Loves, A
TTITLE7=Drivin' And Cryin'
TTITLE8=It Won't Be Over You
TTITLE9=Drive
TTITLE10=Like A River To The Sea
TTITLE11=Road Trippin'
TTITLE12=Every Little Whisper
TTITLE13=Holes In The Floor Of Heaven
TTITLE14=Burnin' The Roadhouse Down
EXTD=
EXTT0=
EXTT1=
EXTT2=
EXTT3=
EXTT4=
EXTT5=
EXTT6=
EXTT7=
EXTT8=
EXTT9=
EXTT10=
EXTT11=
EXTT12=
EXTT13=
EXTT14=
PLAYORDER=
